<svg xmlns="http://www.w3.org/2000/svg" width="32" height="32" viewBox="0 0 32 32" fill="none">
  <rect width="32" height="32" rx="6" fill="#4F46E5"/>
  <path d="M9 16C9 12.134 12.134 9 16 9C19.866 9 23 12.134 23 16" stroke="white" stroke-width="2" stroke-linecap="round"/>
  <path d="M23 16C23 19.866 19.866 23 16 23C12.134 23 9 19.866 9 16" stroke="white" stroke-width="2" stroke-linecap="round"/>
  <path d="M13 15C13 13.8954 13.8954 13 15 13H17C18.1046 13 19 13.8954 19 15V19C19 20.1046 18.1046 21 17 21H15C13.8954 21 13 20.1046 13 19V15Z" stroke="white" stroke-width="2"/>
  <path d="M13 15H19" stroke="white" stroke-width="2"/>
</svg>
